<svg width="130" height="104" viewBox="0 0 130 104" fill="none" xmlns="http://www.w3.org/2000/svg">
<path fill-rule="evenodd" clip-rule="evenodd" d="M64.194 0C75.0047 9.44411 91.9801 33.6334 73.3961 54.838C54.812 76.0425 49.1779 56.1899 48.6838 43.6131C45.4276 37.4397 43.9711 20.0743 64.194 0ZM63.7077 16.7305C62.4848 21.4184 60.7726 33.1179 63.7077 42.4123C64.4211 37.9282 65.4198 26.514 63.7077 16.7305Z" fill="#8ACAA3"/>
<g filter="url(#filter0_d)">
<path fill-rule="evenodd" clip-rule="evenodd" d="M16.9332 21.3164C15.914 35.635 20.9077 64.7615 49.0354 66.7182C77.1632 68.6749 67.1758 50.6161 58.6661 41.3421C56.6279 34.6669 45.4278 21.3164 16.9332 21.3164ZM47.9916 55.6049C47.6053 51.7369 43.849 42.2867 31.9142 35.4304C35.2859 38.8632 43.2217 47.7041 47.9916 55.6049Z" fill="#8ACAA3"/>
</g>
<g filter="url(#filter1_d)">
<path fill-rule="evenodd" clip-rule="evenodd" d="M112.13 21.0898C113.149 35.4085 108.155 64.5349 80.0273 66.4916C51.8996 68.4484 61.887 50.3895 70.3967 41.1156C72.4349 34.4403 83.635 21.0898 112.13 21.0898ZM78.9519 53.4697C79.7804 49.6717 84.5985 40.7161 97.2425 35.2776C93.4984 38.3 84.5986 46.1697 78.9519 53.4697Z" fill="#8ACAA3"/>
</g>
<path d="M41.2708 42.7566C44.327 45.9394 46.7031 49.9121 46.9373 54.5103C45.1274 51.6065 42.5872 47.7418 39.9581 44.154C38.4038 42.0329 36.814 40.0025 35.3223 38.3225C35.0223 37.9846 34.7251 37.6595 34.4318 37.3497C36.6692 38.7022 39.128 40.525 41.2708 42.7566Z" fill="#EEE8DB" stroke="#EEE8DB"/>
<path d="M87.2946 41.2792C83.8911 44.0877 81.072 47.7592 80.3081 52.2996C82.4414 49.6243 85.4111 46.079 88.4371 42.8189C90.226 40.8916 92.0397 39.0585 93.7155 37.5621C94.0526 37.2611 94.3854 36.9725 94.7125 36.6987C92.3338 37.7836 89.6809 39.3101 87.2946 41.2792Z" fill="#EEE8DB" stroke="#EEE8DB"/>
<g filter="url(#filter2_d)">
<path fill-rule="evenodd" clip-rule="evenodd" d="M73.7033 52.4363C80.0027 48.9916 97.2177 47.7979 115.682 70.5804C96.1229 85.4628 80.4884 91.2978 65.0122 79.3587C52.6313 69.8075 65.6475 57.4307 73.7033 52.4363ZM71.8906 70.2024C75.0978 68.0058 84.7454 64.7902 97.6783 69.5007C92.8806 69.1336 81.0063 68.7601 71.8906 70.2024Z" fill="#8ACAA3"/>
</g>
<g filter="url(#filter3_d)">
<path fill-rule="evenodd" clip-rule="evenodd" d="M55.4787 53.5602C49.5253 49.547 32.4948 46.7644 12 67.7392C30.0973 84.3688 45.1243 91.6264 61.6395 81.1717C74.8517 72.8079 63.0374 59.2791 55.4787 53.5602ZM56.3907 69.8004C53.1064 67.7208 43.3492 64.8549 30.5945 70.0284C35.3758 69.4887 47.229 68.6876 56.3907 69.8004Z" fill="#8ACAA3"/>
</g>
<path d="M41.535 67.3452C45.9149 66.8097 50.5188 67.2922 54.338 69.8636C50.929 69.5694 46.3131 69.283 41.8654 69.2338C39.236 69.2047 36.6578 69.2585 34.4187 69.4439C33.9684 69.4812 33.53 69.524 33.1062 69.5728C35.5306 68.5941 38.464 67.7207 41.535 67.3452Z" fill="#EEE8DB" stroke="#EEE8DB"/>
<path d="M87.6369 66.7339C83.2569 66.1984 78.6531 66.6809 74.8339 69.2522C78.2429 68.9581 82.8588 68.6717 87.3065 68.6225C89.9359 68.5934 92.5141 68.6471 94.7531 68.8326C95.2035 68.8699 95.6419 68.9127 96.0657 68.9614C93.6413 67.9828 90.7078 67.1093 87.6369 66.7339Z" fill="#EEE8DB" stroke="#EEE8DB"/>
<path d="M63.844 19.0722C65.3597 27.7694 64.5635 36.662 63.7127 41.4947C62.7221 38.0066 62.514 33.6092 62.7044 29.3194C62.8724 25.5367 63.3479 21.878 63.844 19.0722Z" fill="#EFE9DC" stroke="#EFE9DC"/>
<g filter="url(#filter4_d)">
<path d="M78.3475 42.7708C74.1843 36.0425 64.9103 33.2244 56.9087 35.5403C47.378 38.295 41.9738 48.6654 46.2207 56.91C47.975 60.318 50.2111 63.5359 52.4628 66.705C57.0239 73.1261 60.9461 79.7911 62.7475 87.6359C62.8942 87.2409 62.9623 87.0995 62.9989 86.9533C64.5228 80.7077 67.4605 75.0227 71.1419 69.6157C73.6869 65.8762 76.2738 62.1512 78.5988 58.2947C81.7146 53.1314 81.5104 47.8804 78.3475 42.7708ZM62.8785 60.0401C57.2177 60.0401 52.6304 55.8422 52.6304 50.6644C52.6304 45.4865 57.2177 41.2886 62.8785 41.2886C68.5393 41.2886 73.1265 45.4865 73.1265 50.6644C73.1265 55.8422 68.5393 60.0401 62.8785 60.0401Z" fill="#4B66A1"/>
</g>
<defs>
<filter id="filter0_d" x="12.8125" y="17.3164" width="58.7776" height="53.5488" filterUnits="userSpaceOnUse" color-interpolation-filters="sRGB">
<feFlood flood-opacity="0" result="BackgroundImageFix"/>
<feColorMatrix in="SourceAlpha" type="matrix" values="0 0 0 0 0 0 0 0 0 0 0 0 0 0 0 0 0 0 127 0"/>
<feOffset/>
<feGaussianBlur stdDeviation="2"/>
<feColorMatrix type="matrix" values="0 0 0 0 0 0 0 0 0 0 0 0 0 0 0 0 0 0 0.25 0"/>
<feBlend mode="normal" in2="BackgroundImageFix" result="effect1_dropShadow"/>
<feBlend mode="normal" in="SourceGraphic" in2="effect1_dropShadow" result="shape"/>
</filter>
<filter id="filter1_d" x="57.4727" y="17.0898" width="58.7776" height="53.5488" filterUnits="userSpaceOnUse" color-interpolation-filters="sRGB">
<feFlood flood-opacity="0" result="BackgroundImageFix"/>
<feColorMatrix in="SourceAlpha" type="matrix" values="0 0 0 0 0 0 0 0 0 0 0 0 0 0 0 0 0 0 127 0"/>
<feOffset/>
<feGaussianBlur stdDeviation="2"/>
<feColorMatrix type="matrix" values="0 0 0 0 0 0 0 0 0 0 0 0 0 0 0 0 0 0 0.25 0"/>
<feBlend mode="normal" in2="BackgroundImageFix" result="effect1_dropShadow"/>
<feBlend mode="normal" in="SourceGraphic" in2="effect1_dropShadow" result="shape"/>
</filter>
<filter id="filter2_d" x="45.9062" y="40.5288" width="83.776" height="63.2245" filterUnits="userSpaceOnUse" color-interpolation-filters="sRGB">
<feFlood flood-opacity="0" result="BackgroundImageFix"/>
<feColorMatrix in="SourceAlpha" type="matrix" values="0 0 0 0 0 0 0 0 0 0 0 0 0 0 0 0 0 0 127 0"/>
<feOffset dy="4"/>
<feGaussianBlur stdDeviation="7"/>
<feColorMatrix type="matrix" values="0 0 0 0 0 0 0 0 0 0 0 0 0 0 0 0 0 0 0.25 0"/>
<feBlend mode="normal" in2="BackgroundImageFix" result="effect1_dropShadow"/>
<feBlend mode="normal" in="SourceGraphic" in2="effect1_dropShadow" result="shape"/>
</filter>
<filter id="filter3_d" x="0" y="42.752" width="79.5964" height="59.2884" filterUnits="userSpaceOnUse" color-interpolation-filters="sRGB">
<feFlood flood-opacity="0" result="BackgroundImageFix"/>
<feColorMatrix in="SourceAlpha" type="matrix" values="0 0 0 0 0 0 0 0 0 0 0 0 0 0 0 0 0 0 127 0"/>
<feOffset dy="4"/>
<feGaussianBlur stdDeviation="6"/>
<feColorMatrix type="matrix" values="0 0 0 0 0 0 0 0 0 0 0 0 0 0 0 0 0 0 0.16 0"/>
<feBlend mode="normal" in2="BackgroundImageFix" result="effect1_dropShadow"/>
<feBlend mode="normal" in="SourceGraphic" in2="effect1_dropShadow" result="shape"/>
</filter>
<filter id="filter4_d" x="40.7539" y="34.7422" width="44.0769" height="60.8937" filterUnits="userSpaceOnUse" color-interpolation-filters="sRGB">
<feFlood flood-opacity="0" result="BackgroundImageFix"/>
<feColorMatrix in="SourceAlpha" type="matrix" values="0 0 0 0 0 0 0 0 0 0 0 0 0 0 0 0 0 0 127 0"/>
<feOffset dy="4"/>
<feGaussianBlur stdDeviation="2"/>
<feColorMatrix type="matrix" values="0 0 0 0 0 0 0 0 0 0 0 0 0 0 0 0 0 0 0.25 0"/>
<feBlend mode="normal" in2="BackgroundImageFix" result="effect1_dropShadow"/>
<feBlend mode="normal" in="SourceGraphic" in2="effect1_dropShadow" result="shape"/>
</filter>
</defs>
</svg>
